<?xml version="1.0" standalone="no"?>
<!DOCTYPE svg PUBLIC "-//W3C//DTD SVG 1.1//EN" "http://www.w3.org/Graphics/SVG/1.1/DTD/svg11.dtd">
<svg xmlns="http://www.w3.org/2000/svg" id="Layer_2" data-name="Layer 2" viewBox="0 0 2236.5 352.21" width="2236.5" height="352.2099914550781">
  <defs>
    <style>
      .cls-1 {
        fill: #e2e2e2;
      }
    </style>
  </defs>
  <g id="Layer_1-2" data-name="Layer 1">
    <g>
      <polygon class="cls-1" points="1040.3 54.94 902.53 332.71 939.73 54.94 837.31 54.94 747.3 344.62 801.49 344.62 887.83 66.85 848.33 344.62 952.58 344.62 1086.23 66.85 999.88 344.62 1054.08 344.62 1142.72 54.94 1040.3 54.94"/>
      <path class="cls-1" d="M1741.82,54.9l-126.33.05-88.65,289.68h55.11l35.35-117.32h44.54s57.63,117.32,57.63,117.32h57.42s-63.32-118.49-63.32-118.49h0c59.16-3.42,96.88-39.5,98.47-101.06,1.06-41.23-31.35-66.2-70.22-70.17ZM1748.84,153.66c-4.94,10.18-21.59,20.46-32.78,20.46h-82.29l21.22-69.47s52.78,1.64,73.93,1.64c26.08,0,29.77,27.08,19.93,47.37Z"/>
      <path class="cls-1" d="M767.83,110.84c-11.87-33.31-45.38-58.18-81.04-62.6h-.09c-48.57-6.34-98.44,20.26-128.47,58.04-15.8,19.7-27.1,42.98-33.32,67.47-11.72,46.84-6.65,98.74,23.09,136.71,51,63.83,138.02,48.51,185.67-11.9,38-48.18,54.91-129.47,34.17-187.71ZM716.4,211.92c-11.86,41.74-46.05,102.47-95.42,91.59-49.58-10.92-57.62-81.42-40.55-129.36,15.91-44.7,57.59-97.83,103.79-84.37,49.69,14.48,43.15,83.52,32.18,122.14Z"/>
      <path class="cls-1" d="M1979.8,48.8h-.09c-48.57-6.34-98.44,20.26-128.47,58.04-15.8,19.7-27.1,42.98-33.32,67.47-11.72,46.84-6.65,98.74,23.09,136.71,51,63.83,138.02,48.51,185.67-11.9,38-48.18,54.91-129.47,34.17-187.71-11.87-33.31-45.38-58.18-81.04-62.6ZM2009.41,212.48c-11.86,41.74-46.05,102.47-95.42,91.59-49.58-10.92-57.62-81.42-40.55-129.36,15.91-44.7,57.59-97.83,103.79-84.37,49.69,14.48,43.15,83.52,32.18,122.14Z"/>
      <polygon class="cls-1" points="1075.18 344.62 1269.9 344.62 1280 293.29 1145.93 293.29 1167.99 220.39 1308.51 219.95 1317.71 169.53 1184.11 169.53 1203.4 106.28 1349.27 106.19 1359.46 54.94 1163.82 54.94 1075.18 344.62"/>
      <polygon class="cls-1" points="1603.15 54.94 1372.85 54.94 1362.28 106.28 1452.48 106.28 1379.19 344.62 1433.76 344.62 1506.93 106.32 1587.31 106.27 1603.15 54.94"/>
      <polygon class="cls-1" points="473.28 54.38 418.52 54.38 329.88 344.07 514.5 344.07 523.68 293.65 399.93 293.65 473.28 54.38"/>
      <polygon class="cls-1" points="2128.58 54.94 2094.63 85.23 2080.36 158.53 2181.4 66.41 2094.59 344.62 2147.4 344.62 2236.5 54.94 2128.58 54.94"/>
      <polygon class="cls-1" points="337.18 54.73 248.24 344.41 302.7 344.41 391.64 54.73 337.18 54.73"/>
      <polygon class="cls-1" points="689.07 0 654.32 37.61 708.78 37.61 743.53 0 689.07 0"/>
      <polygon class="cls-1" points="103.65 189.41 103.65 189.41 103.65 189.41 103.65 189.41"/>
      <polygon class="cls-1" points="103.19 189.42 103.2 189.4 171.86 183.08 319.94 54.36 246.63 54.36 103.22 189.34 144.94 54.36 88.25 54.36 0 344.31 55.31 344.31 103.18 189.47 174.58 344.31 234.47 344.31 166.37 210.7 103.19 189.42"/>
    </g>
  </g>
</svg>